<svg height="512pt" viewBox="0 -40 512 512" width="512pt" xmlns="http://www.w3.org/2000/svg"><path d="m393.546875 133.191406-126.140625 3.910156-267.40625 71.945313v222.5h512v-219.007813zm0 0" fill="#fed230"/><path d="m393.546875 133.191406-69.546875 2.15625v296.195313h188v-219.003907zm0 0" fill="#fabe2c"/><path d="m0 209.046875v222.5h512v-219.007813zm0 0" fill="#fabe2c"/><path d="m324 211.257812v220.285157h188v-219.003907zm0 0" fill="#fd9e28"/><path d="m414.441406 274.8125c-52.816406 0-52.816406 20-105.632812 20s-52.816406-20-105.628906-20c-52.816407 0-52.816407 20-105.628907 20-49.972656 0-52.667969-17.902344-97.550781-19.828125v156.5625h512v-136.90625c-44.886719-1.925781-47.582031-19.828125-97.558594-19.828125zm0 0" fill="#fc105c"/><path d="m414.441406 274.8125c-47.195312 0-52.222656 15.964844-90.441406 19.367188v137.367187h188v-136.90625c-44.886719-1.925781-47.582031-19.828125-97.558594-19.828125zm0 0" fill="#e10e4b"/><path d="m0 371.542969v60h512v-59.058594zm0 0" fill="#853913"/><path d="m324 372.140625v59.402344h188v-59.054688zm0 0" fill="#6e2e08"/><path d="m307.835938 152.0625c-12.390626 0-48.992188-2.144531-72.835938-25.988281-28.449219-28.449219-26.003906-75.0625-25.886719-77.035157l.726563-12.148437 12.148437-.726563c1.972657-.117187 48.589844-2.5625 77.035157 25.886719 28.449218 28.449219 26.007812 75.066407 25.886718 77.039063l-.726562 12.144531-12.148438.726563c-.316406.019531-1.808594.101562-4.199218.101562zm0 0" fill="#68b921"/><path d="m341.902344 152.109375c-3.28125 0-5.320313-.109375-5.757813-.136719l-12.148437-.726562-.726563-12.148438c-.160156-2.667968-3.472656-65.863281 34.8125-104.152344 38.285157-38.285156 101.476563-34.9687495 104.152344-34.808593l12.144531.726562.730469 12.148438c.160156 2.667969 3.472656 65.859375-34.8125 104.148437-32.050781 32.050782-81.546875 34.949219-98.394531 34.949219zm0 0" fill="#7bdb28"/></svg>